<svg width="155" height="31" viewBox="0 0 155 31" fill="none" xmlns="http://www.w3.org/2000/svg">
<path d="M6.65829 10.3222C7.1139 10.7518 7.1139 11.4482 6.65829 11.8778L2.81658 15.5L6.65829 19.1222C7.1139 19.5518 7.1139 20.2482 6.65829 20.6778C6.20268 21.1074 5.46399 21.1074 5.00838 20.6778L0.34171 16.2778C-0.113902 15.8482 -0.113902 15.1518 0.34171 14.7222L5.00838 10.3222C5.46399 9.89261 6.20268 9.89261 6.65829 10.3222Z" fill="#1B4332"/>
<rect x="19" width="31" height="31" rx="4" fill="#1B4332"/>
<path d="M35.8146 11.2727V20H34.4936V12.5938H34.4425L32.3544 13.9574V12.696L34.532 11.2727H35.8146Z" fill="white"/>
<rect x="62" width="31" height="31" rx="4" fill="#95D5B2"/>
<path d="M74.6598 20V19.0455L77.6129 15.9858C77.9283 15.6534 78.1882 15.3622 78.3928 15.1122C78.6001 14.8594 78.755 14.6193 78.8572 14.392C78.9595 14.1648 79.0107 13.9233 79.0107 13.6676C79.0107 13.3778 78.9425 13.1278 78.8061 12.9176C78.6697 12.7045 78.4837 12.5412 78.2479 12.4276C78.0121 12.3111 77.7464 12.2528 77.451 12.2528C77.1385 12.2528 76.8658 12.3168 76.6328 12.4446C76.3999 12.5724 76.2209 12.7528 76.0959 12.9858C75.9709 13.2187 75.9084 13.4915 75.9084 13.804H74.6513C74.6513 13.2727 74.7734 12.8082 75.0178 12.4105C75.2621 12.0128 75.5973 11.7045 76.0234 11.4858C76.4496 11.2642 76.9339 11.1534 77.4766 11.1534C78.0249 11.1534 78.5078 11.2628 78.9254 11.4815C79.3459 11.6974 79.674 11.9929 79.9098 12.3679C80.1456 12.7401 80.2635 13.1605 80.2635 13.6293C80.2635 13.9531 80.2024 14.2699 80.0803 14.5795C79.9609 14.8892 79.7521 15.2344 79.4538 15.6151C79.1555 15.9929 78.7408 16.4517 78.2095 16.9915L76.4751 18.8068V18.8707H80.4041V20H74.6598Z" fill="black"/>
<rect x="105" width="31" height="31" rx="4" fill="#95D5B2"/>
<path d="M120.511 20.1193C119.925 20.1193 119.403 20.0185 118.942 19.8168C118.485 19.6151 118.123 19.3352 117.856 18.9773C117.592 18.6165 117.45 18.1989 117.43 17.7244H118.768C118.785 17.983 118.871 18.2074 119.028 18.3977C119.187 18.5852 119.394 18.7301 119.65 18.8324C119.906 18.9347 120.19 18.9858 120.502 18.9858C120.846 18.9858 121.15 18.9261 121.414 18.8068C121.681 18.6875 121.89 18.5213 122.04 18.3082C122.191 18.0923 122.266 17.8438 122.266 17.5625C122.266 17.2699 122.191 17.0128 122.04 16.7912C121.893 16.5668 121.675 16.3906 121.388 16.2628C121.104 16.1349 120.761 16.071 120.357 16.071H119.62V14.9972H120.357C120.681 14.9972 120.965 14.9389 121.21 14.8224C121.457 14.706 121.65 14.544 121.789 14.3366C121.928 14.1264 121.998 13.8807 121.998 13.5994C121.998 13.3295 121.937 13.0952 121.815 12.8963C121.695 12.6946 121.525 12.5369 121.303 12.4233C121.085 12.3097 120.826 12.2528 120.528 12.2528C120.244 12.2528 119.978 12.3054 119.731 12.4105C119.487 12.5128 119.288 12.6605 119.134 12.8537C118.981 13.044 118.898 13.2727 118.887 13.5398H117.613C117.627 13.0682 117.766 12.6534 118.031 12.2955C118.298 11.9375 118.65 11.6577 119.087 11.456C119.525 11.2543 120.011 11.1534 120.545 11.1534C121.104 11.1534 121.587 11.2628 121.994 11.4815C122.403 11.6974 122.718 11.9858 122.94 12.3466C123.164 12.7074 123.275 13.1023 123.272 13.5312C123.275 14.0199 123.138 14.4347 122.863 14.7756C122.59 15.1165 122.227 15.3452 121.772 15.4616V15.5298C122.352 15.6179 122.8 15.848 123.119 16.2202C123.44 16.5923 123.599 17.054 123.596 17.6051C123.599 18.0852 123.465 18.5156 123.195 18.8963C122.928 19.277 122.563 19.5767 122.1 19.7955C121.637 20.0114 121.107 20.1193 120.511 20.1193Z" fill="black"/>
<path d="M148.342 20.6778C147.886 20.2482 147.886 19.5518 148.342 19.1222L152.183 15.5L148.342 11.8778C147.886 11.4482 147.886 10.7518 148.342 10.3222C148.797 9.89261 149.536 9.89261 149.992 10.3222L154.658 14.7222C155.114 15.1518 155.114 15.8482 154.658 16.2778L149.992 20.6778C149.536 21.1074 148.797 21.1074 148.342 20.6778Z" fill="#1B4332"/>
</svg>
