<svg width="343" height="43" viewBox="0 0 343 43" fill="none" xmlns="http://www.w3.org/2000/svg">
<path opacity="0.5" d="M0 21.5H34.5" stroke="#4B4E4D"/>
<path d="M66.18 15.88L62.884 27H60.82L58.484 18.584L56.004 27L53.956 27.016L50.804 15.88H52.74L55.044 24.936L57.54 15.88H59.588L61.908 24.888L64.228 15.88H66.18ZM75.7644 22.376C75.7644 22.7067 75.743 23.0053 75.7004 23.272H68.9644C69.0177 23.976 69.279 24.5413 69.7484 24.968C70.2177 25.3947 70.7937 25.608 71.4764 25.608C72.4577 25.608 73.151 25.1973 73.5564 24.376H75.5244C75.2577 25.1867 74.7724 25.8533 74.0684 26.376C73.375 26.888 72.511 27.144 71.4764 27.144C70.6337 27.144 69.8764 26.9573 69.2044 26.584C68.543 26.2 68.0204 25.6667 67.6364 24.984C67.263 24.2907 67.0764 23.4907 67.0764 22.584C67.0764 21.6773 67.2577 20.8827 67.6204 20.2C67.9937 19.5067 68.511 18.9733 69.1724 18.6C69.8444 18.2267 70.6124 18.04 71.4764 18.04C72.3084 18.04 73.0497 18.2213 73.7004 18.584C74.351 18.9467 74.8577 19.4587 75.2204 20.12C75.583 20.7707 75.7644 21.5227 75.7644 22.376ZM73.8604 21.8C73.8497 21.128 73.6097 20.5893 73.1404 20.184C72.671 19.7787 72.0897 19.576 71.3964 19.576C70.767 19.576 70.2284 19.7787 69.7804 20.184C69.3324 20.5787 69.0657 21.1173 68.9804 21.8H73.8604ZM79.3834 15.16V27H77.5594V15.16H79.3834ZM81.1701 22.584C81.1701 21.6773 81.3515 20.8827 81.7141 20.2C82.0875 19.5067 82.5995 18.9733 83.2501 18.6C83.9008 18.2267 84.6475 18.04 85.4901 18.04C86.5568 18.04 87.4368 18.296 88.1301 18.808C88.8341 19.3093 89.3088 20.0293 89.5541 20.968H87.5861C87.4261 20.5307 87.1701 20.1893 86.8181 19.944C86.4661 19.6987 86.0235 19.576 85.4901 19.576C84.7435 19.576 84.1461 19.8427 83.6981 20.376C83.2608 20.8987 83.0421 21.6347 83.0421 22.584C83.0421 23.5333 83.2608 24.2747 83.6981 24.808C84.1461 25.3413 84.7435 25.608 85.4901 25.608C86.5461 25.608 87.2448 25.144 87.5861 24.216H89.5541C89.2981 25.112 88.8181 25.8267 88.1141 26.36C87.4101 26.8827 86.5355 27.144 85.4901 27.144C84.6475 27.144 83.9008 26.9573 83.2501 26.584C82.5995 26.2 82.0875 25.6667 81.7141 24.984C81.3515 24.2907 81.1701 23.4907 81.1701 22.584ZM95.1959 27.144C94.3639 27.144 93.6119 26.9573 92.9399 26.584C92.2679 26.2 91.7399 25.6667 91.3559 24.984C90.9719 24.2907 90.7799 23.4907 90.7799 22.584C90.7799 21.688 90.9772 20.8933 91.3719 20.2C91.7665 19.5067 92.3052 18.9733 92.9879 18.6C93.6705 18.2267 94.4332 18.04 95.2759 18.04C96.1185 18.04 96.8812 18.2267 97.5639 18.6C98.2465 18.9733 98.7852 19.5067 99.1799 20.2C99.5745 20.8933 99.7719 21.688 99.7719 22.584C99.7719 23.48 99.5692 24.2747 99.1639 24.968C98.7585 25.6613 98.2039 26.2 97.4999 26.584C96.8065 26.9573 96.0385 27.144 95.1959 27.144ZM95.1959 25.56C95.6652 25.56 96.1025 25.448 96.5079 25.224C96.9239 25 97.2599 24.664 97.5159 24.216C97.7719 23.768 97.8999 23.224 97.8999 22.584C97.8999 21.944 97.7772 21.4053 97.5319 20.968C97.2865 20.52 96.9612 20.184 96.5559 19.96C96.1505 19.736 95.7132 19.624 95.2439 19.624C94.7745 19.624 94.3372 19.736 93.9319 19.96C93.5372 20.184 93.2225 20.52 92.9879 20.968C92.7532 21.4053 92.6359 21.944 92.6359 22.584C92.6359 23.5333 92.8759 24.2693 93.3559 24.792C93.8465 25.304 94.4599 25.56 95.1959 25.56ZM112.247 18.04C112.94 18.04 113.559 18.184 114.103 18.472C114.658 18.76 115.09 19.1867 115.399 19.752C115.719 20.3173 115.879 21 115.879 21.8V27H114.071V22.072C114.071 21.2827 113.874 20.68 113.479 20.264C113.084 19.8373 112.546 19.624 111.863 19.624C111.18 19.624 110.636 19.8373 110.231 20.264C109.836 20.68 109.639 21.2827 109.639 22.072V27H107.831V22.072C107.831 21.2827 107.634 20.68 107.239 20.264C106.844 19.8373 106.306 19.624 105.623 19.624C104.94 19.624 104.396 19.8373 103.991 20.264C103.596 20.68 103.399 21.2827 103.399 22.072V27H101.575V18.184H103.399V19.192C103.698 18.8293 104.076 18.5467 104.535 18.344C104.994 18.1413 105.484 18.04 106.007 18.04C106.711 18.04 107.34 18.1893 107.895 18.488C108.45 18.7867 108.876 19.2187 109.175 19.784C109.442 19.2507 109.858 18.8293 110.423 18.52C110.988 18.2 111.596 18.04 112.247 18.04ZM126.28 22.376C126.28 22.7067 126.259 23.0053 126.216 23.272H119.48C119.533 23.976 119.795 24.5413 120.264 24.968C120.733 25.3947 121.309 25.608 121.992 25.608C122.973 25.608 123.667 25.1973 124.072 24.376H126.04C125.773 25.1867 125.288 25.8533 124.584 26.376C123.891 26.888 123.027 27.144 121.992 27.144C121.149 27.144 120.392 26.9573 119.72 26.584C119.059 26.2 118.536 25.6667 118.152 24.984C117.779 24.2907 117.592 23.4907 117.592 22.584C117.592 21.6773 117.773 20.8827 118.136 20.2C118.509 19.5067 119.027 18.9733 119.688 18.6C120.36 18.2267 121.128 18.04 121.992 18.04C122.824 18.04 123.565 18.2213 124.216 18.584C124.867 18.9467 125.373 19.4587 125.736 20.12C126.099 20.7707 126.28 21.5227 126.28 22.376ZM124.376 21.8C124.365 21.128 124.125 20.5893 123.656 20.184C123.187 19.7787 122.605 19.576 121.912 19.576C121.283 19.576 120.744 19.7787 120.296 20.184C119.848 20.5787 119.581 21.1173 119.496 21.8H124.376ZM134.359 19.672V24.552C134.359 24.8827 134.434 25.1227 134.583 25.272C134.743 25.4107 135.01 25.48 135.383 25.48H136.503V27H135.063C134.242 27 133.613 26.808 133.175 26.424C132.738 26.04 132.519 25.416 132.519 24.552V19.672H131.479V18.184H132.519V15.992H134.359V18.184H136.503V19.672H134.359ZM142.008 27.144C141.176 27.144 140.424 26.9573 139.752 26.584C139.08 26.2 138.552 25.6667 138.168 24.984C137.784 24.2907 137.592 23.4907 137.592 22.584C137.592 21.688 137.79 20.8933 138.184 20.2C138.579 19.5067 139.118 18.9733 139.8 18.6C140.483 18.2267 141.246 18.04 142.088 18.04C142.931 18.04 143.694 18.2267 144.376 18.6C145.059 18.9733 145.598 19.5067 145.992 20.2C146.387 20.8933 146.584 21.688 146.584 22.584C146.584 23.48 146.382 24.2747 145.976 24.968C145.571 25.6613 145.016 26.2 144.312 26.584C143.619 26.9573 142.851 27.144 142.008 27.144ZM142.008 25.56C142.478 25.56 142.915 25.448 143.32 25.224C143.736 25 144.072 24.664 144.328 24.216C144.584 23.768 144.712 23.224 144.712 22.584C144.712 21.944 144.59 21.4053 144.344 20.968C144.099 20.52 143.774 20.184 143.368 19.96C142.963 19.736 142.526 19.624 142.056 19.624C141.587 19.624 141.15 19.736 140.744 19.96C140.35 20.184 140.035 20.52 139.8 20.968C139.566 21.4053 139.448 21.944 139.448 22.584C139.448 23.5333 139.688 24.2693 140.168 24.792C140.659 25.304 141.272 25.56 142.008 25.56ZM160.48 18.184L155.072 31.144H153.184L154.976 26.856L151.504 18.184H153.536L156.016 24.904L158.592 18.184H160.48ZM165.68 27.144C164.848 27.144 164.096 26.9573 163.424 26.584C162.752 26.2 162.224 25.6667 161.84 24.984C161.456 24.2907 161.264 23.4907 161.264 22.584C161.264 21.688 161.462 20.8933 161.856 20.2C162.251 19.5067 162.79 18.9733 163.472 18.6C164.155 18.2267 164.918 18.04 165.76 18.04C166.603 18.04 167.366 18.2267 168.048 18.6C168.731 18.9733 169.27 19.5067 169.664 20.2C170.059 20.8933 170.256 21.688 170.256 22.584C170.256 23.48 170.054 24.2747 169.648 24.968C169.243 25.6613 168.688 26.2 167.984 26.584C167.291 26.9573 166.523 27.144 165.68 27.144ZM165.68 25.56C166.15 25.56 166.587 25.448 166.992 25.224C167.408 25 167.744 24.664 168 24.216C168.256 23.768 168.384 23.224 168.384 22.584C168.384 21.944 168.262 21.4053 168.016 20.968C167.771 20.52 167.446 20.184 167.04 19.96C166.635 19.736 166.198 19.624 165.728 19.624C165.259 19.624 164.822 19.736 164.416 19.96C164.022 20.184 163.707 20.52 163.472 20.968C163.238 21.4053 163.12 21.944 163.12 22.584C163.12 23.5333 163.36 24.2693 163.84 24.792C164.331 25.304 164.944 25.56 165.68 25.56ZM180.043 18.184V27H178.219V25.96C177.931 26.3227 177.553 26.6107 177.083 26.824C176.625 27.0267 176.134 27.128 175.611 27.128C174.918 27.128 174.294 26.984 173.739 26.696C173.195 26.408 172.763 25.9813 172.443 25.416C172.134 24.8507 171.979 24.168 171.979 23.368V18.184H173.787V23.096C173.787 23.8853 173.985 24.4933 174.379 24.92C174.774 25.336 175.313 25.544 175.995 25.544C176.678 25.544 177.217 25.336 177.611 24.92C178.017 24.4933 178.219 23.8853 178.219 23.096V18.184H180.043ZM184.274 19.464C184.541 19.016 184.893 18.6693 185.33 18.424C185.778 18.168 186.306 18.04 186.914 18.04V19.928H186.45C185.735 19.928 185.191 20.1093 184.818 20.472C184.455 20.8347 184.274 21.464 184.274 22.36V27H182.45V18.184H184.274V19.464ZM196.379 15.88C197.563 15.88 198.598 16.1093 199.483 16.568C200.379 17.016 201.067 17.6667 201.547 18.52C202.038 19.3627 202.283 20.3493 202.283 21.48C202.283 22.6107 202.038 23.592 201.547 24.424C201.067 25.256 200.379 25.896 199.483 26.344C198.598 26.7813 197.563 27 196.379 27H192.747V15.88H196.379ZM196.379 25.512C197.68 25.512 198.678 25.16 199.371 24.456C200.064 23.752 200.411 22.76 200.411 21.48C200.411 20.1893 200.064 19.1813 199.371 18.456C198.678 17.7307 197.68 17.368 196.379 17.368H194.571V25.512H196.379ZM203.483 22.552C203.483 21.6667 203.664 20.8827 204.027 20.2C204.4 19.5173 204.901 18.9893 205.531 18.616C206.171 18.232 206.875 18.04 207.643 18.04C208.336 18.04 208.939 18.1787 209.451 18.456C209.973 18.7227 210.389 19.0587 210.699 19.464V18.184H212.539V27H210.699V25.688C210.389 26.104 209.968 26.4507 209.435 26.728C208.901 27.0053 208.293 27.144 207.611 27.144C206.853 27.144 206.16 26.952 205.531 26.568C204.901 26.1733 204.4 25.6293 204.027 24.936C203.664 24.232 203.483 23.4373 203.483 22.552ZM210.699 22.584C210.699 21.976 210.571 21.448 210.315 21C210.069 20.552 209.744 20.2107 209.339 19.976C208.933 19.7413 208.496 19.624 208.027 19.624C207.557 19.624 207.12 19.7413 206.715 19.976C206.309 20.2 205.979 20.536 205.723 20.984C205.477 21.4213 205.355 21.944 205.355 22.552C205.355 23.16 205.477 23.6933 205.723 24.152C205.979 24.6107 206.309 24.9627 206.715 25.208C207.131 25.4427 207.568 25.56 208.027 25.56C208.496 25.56 208.933 25.4427 209.339 25.208C209.744 24.9733 210.069 24.632 210.315 24.184C210.571 23.7253 210.699 23.192 210.699 22.584ZM218.134 27.144C217.441 27.144 216.817 27.0213 216.262 26.776C215.718 26.52 215.286 26.1787 214.966 25.752C214.646 25.3147 214.476 24.8293 214.454 24.296H216.342C216.374 24.6693 216.55 24.984 216.87 25.24C217.201 25.4853 217.612 25.608 218.102 25.608C218.614 25.608 219.009 25.512 219.286 25.32C219.574 25.1173 219.718 24.8613 219.718 24.552C219.718 24.2213 219.558 23.976 219.238 23.816C218.929 23.656 218.433 23.48 217.75 23.288C217.089 23.1067 216.55 22.9307 216.134 22.76C215.718 22.5893 215.356 22.328 215.046 21.976C214.748 21.624 214.598 21.16 214.598 20.584C214.598 20.1147 214.737 19.688 215.014 19.304C215.292 18.9093 215.686 18.6 216.198 18.376C216.721 18.152 217.318 18.04 217.99 18.04C218.993 18.04 219.798 18.296 220.406 18.808C221.025 19.3093 221.356 19.9973 221.398 20.872H219.574C219.542 20.4773 219.382 20.1627 219.094 19.928C218.806 19.6933 218.417 19.576 217.926 19.576C217.446 19.576 217.078 19.6667 216.822 19.848C216.566 20.0293 216.438 20.2693 216.438 20.568C216.438 20.8027 216.524 21 216.694 21.16C216.865 21.32 217.073 21.448 217.318 21.544C217.564 21.6293 217.926 21.7413 218.406 21.88C219.046 22.0507 219.569 22.2267 219.974 22.408C220.39 22.5787 220.748 22.8347 221.046 23.176C221.345 23.5173 221.5 23.9707 221.51 24.536C221.51 25.0373 221.372 25.4853 221.094 25.88C220.817 26.2747 220.422 26.584 219.91 26.808C219.409 27.032 218.817 27.144 218.134 27.144ZM228.041 18.04C228.713 18.04 229.311 18.184 229.833 18.472C230.367 18.76 230.783 19.1867 231.081 19.752C231.391 20.3173 231.545 21 231.545 21.8V27H229.737V22.072C229.737 21.2827 229.54 20.68 229.145 20.264C228.751 19.8373 228.212 19.624 227.529 19.624C226.847 19.624 226.303 19.8373 225.897 20.264C225.503 20.68 225.305 21.2827 225.305 22.072V27H223.481V15.16H225.305V19.208C225.615 18.8347 226.004 18.5467 226.473 18.344C226.953 18.1413 227.476 18.04 228.041 18.04ZM235.696 19.496C236.005 19.0693 236.427 18.7227 236.96 18.456C237.504 18.1787 238.107 18.04 238.768 18.04C239.547 18.04 240.251 18.2267 240.88 18.6C241.509 18.9733 242.005 19.5067 242.368 20.2C242.731 20.8827 242.912 21.6667 242.912 22.552C242.912 23.4373 242.731 24.232 242.368 24.936C242.005 25.6293 241.504 26.1733 240.864 26.568C240.235 26.952 239.536 27.144 238.768 27.144C238.085 27.144 237.477 27.0107 236.944 26.744C236.421 26.4773 236.005 26.136 235.696 25.72V27H233.872V15.16H235.696V19.496ZM241.056 22.552C241.056 21.944 240.928 21.4213 240.672 20.984C240.427 20.536 240.096 20.2 239.68 19.976C239.275 19.7413 238.837 19.624 238.368 19.624C237.909 19.624 237.472 19.7413 237.056 19.976C236.651 20.2107 236.32 20.552 236.064 21C235.819 21.448 235.696 21.976 235.696 22.584C235.696 23.192 235.819 23.7253 236.064 24.184C236.32 24.632 236.651 24.9733 237.056 25.208C237.472 25.4427 237.909 25.56 238.368 25.56C238.837 25.56 239.275 25.4427 239.68 25.208C240.096 24.9627 240.427 24.6107 240.672 24.152C240.928 23.6933 241.056 23.16 241.056 22.552ZM248.54 27.144C247.708 27.144 246.956 26.9573 246.284 26.584C245.612 26.2 245.084 25.6667 244.7 24.984C244.316 24.2907 244.124 23.4907 244.124 22.584C244.124 21.688 244.321 20.8933 244.716 20.2C245.11 19.5067 245.649 18.9733 246.332 18.6C247.014 18.2267 247.777 18.04 248.62 18.04C249.462 18.04 250.225 18.2267 250.908 18.6C251.59 18.9733 252.129 19.5067 252.524 20.2C252.918 20.8933 253.116 21.688 253.116 22.584C253.116 23.48 252.913 24.2747 252.508 24.968C252.102 25.6613 251.548 26.2 250.844 26.584C250.15 26.9573 249.382 27.144 248.54 27.144ZM248.54 25.56C249.009 25.56 249.446 25.448 249.852 25.224C250.268 25 250.604 24.664 250.86 24.216C251.116 23.768 251.244 23.224 251.244 22.584C251.244 21.944 251.121 21.4053 250.876 20.968C250.63 20.52 250.305 20.184 249.9 19.96C249.494 19.736 249.057 19.624 248.588 19.624C248.118 19.624 247.681 19.736 247.276 19.96C246.881 20.184 246.566 20.52 246.332 20.968C246.097 21.4053 245.98 21.944 245.98 22.584C245.98 23.5333 246.22 24.2693 246.7 24.792C247.19 25.304 247.804 25.56 248.54 25.56ZM254.311 22.552C254.311 21.6667 254.492 20.8827 254.855 20.2C255.228 19.5173 255.729 18.9893 256.359 18.616C256.999 18.232 257.703 18.04 258.471 18.04C259.164 18.04 259.767 18.1787 260.279 18.456C260.801 18.7227 261.217 19.0587 261.527 19.464V18.184H263.367V27H261.527V25.688C261.217 26.104 260.796 26.4507 260.263 26.728C259.729 27.0053 259.121 27.144 258.439 27.144C257.681 27.144 256.988 26.952 256.359 26.568C255.729 26.1733 255.228 25.6293 254.855 24.936C254.492 24.232 254.311 23.4373 254.311 22.552ZM261.527 22.584C261.527 21.976 261.399 21.448 261.143 21C260.897 20.552 260.572 20.2107 260.167 19.976C259.761 19.7413 259.324 19.624 258.855 19.624C258.385 19.624 257.948 19.7413 257.543 19.976C257.137 20.2 256.807 20.536 256.551 20.984C256.305 21.4213 256.183 21.944 256.183 22.552C256.183 23.16 256.305 23.6933 256.551 24.152C256.807 24.6107 257.137 24.9627 257.543 25.208C257.959 25.4427 258.396 25.56 258.855 25.56C259.324 25.56 259.761 25.4427 260.167 25.208C260.572 24.9733 260.897 24.632 261.143 24.184C261.399 23.7253 261.527 23.192 261.527 22.584ZM267.587 19.464C267.853 19.016 268.205 18.6693 268.643 18.424C269.091 18.168 269.619 18.04 270.227 18.04V19.928H269.763C269.048 19.928 268.504 20.1093 268.131 20.472C267.768 20.8347 267.587 21.464 267.587 22.36V27H265.763V18.184H267.587V19.464ZM271.295 22.552C271.295 21.6667 271.476 20.8827 271.839 20.2C272.212 19.5173 272.714 18.9893 273.343 18.616C273.983 18.232 274.692 18.04 275.471 18.04C276.047 18.04 276.612 18.168 277.167 18.424C277.732 18.6693 278.18 19 278.511 19.416V15.16H280.351V27H278.511V25.672C278.212 26.0987 277.796 26.4507 277.263 26.728C276.74 27.0053 276.138 27.144 275.455 27.144C274.687 27.144 273.983 26.952 273.343 26.568C272.714 26.1733 272.212 25.6293 271.839 24.936C271.476 24.232 271.295 23.4373 271.295 22.552ZM278.511 22.584C278.511 21.976 278.383 21.448 278.127 21C277.882 20.552 277.556 20.2107 277.151 19.976C276.746 19.7413 276.308 19.624 275.839 19.624C275.37 19.624 274.932 19.7413 274.527 19.976C274.122 20.2 273.791 20.536 273.535 20.984C273.29 21.4213 273.167 21.944 273.167 22.552C273.167 23.16 273.29 23.6933 273.535 24.152C273.791 24.6107 274.122 24.9627 274.527 25.208C274.943 25.4427 275.38 25.56 275.839 25.56C276.308 25.56 276.746 25.4427 277.151 25.208C277.556 24.9733 277.882 24.632 278.127 24.184C278.383 23.7253 278.511 23.192 278.511 22.584Z" fill="#4B4E4D" fill-opacity="0.5"/>
<path opacity="0.5" d="M308.5 21.5H343" stroke="#4B4E4D"/>
</svg>
