<svg width="355" height="17" viewBox="0 0 355 17" fill="none" xmlns="http://www.w3.org/2000/svg">
<path opacity="0.5" d="M0 7.31592H18" stroke="#4B4E4D"/>
<path d="M40.32 1.55192C41.408 1.55192 42.3733 1.79725 43.216 2.28792C44.0587 2.76792 44.7147 3.43992 45.184 4.30392C45.6533 5.16792 45.888 6.14925 45.888 7.24792C45.888 8.34658 45.6533 9.33325 45.184 10.2079C44.7147 11.0719 44.0587 11.7493 43.216 12.2399C42.3733 12.7199 41.408 12.9599 40.32 12.9599C39.232 12.9599 38.2613 12.7199 37.408 12.2399C36.5653 11.7493 35.9093 11.0719 35.44 10.2079C34.9707 9.33325 34.736 8.34658 34.736 7.24792C34.736 6.14925 34.9707 5.16792 35.44 4.30392C35.9093 3.43992 36.5653 2.76792 37.408 2.28792C38.2613 1.79725 39.232 1.55192 40.32 1.55192ZM40.32 2.28792C39.3493 2.28792 38.5013 2.49058 37.776 2.89592C37.0613 3.30125 36.5067 3.88258 36.112 4.63992C35.728 5.38658 35.536 6.25592 35.536 7.24792C35.536 8.23992 35.728 9.10925 36.112 9.85592C36.5067 10.6026 37.0613 11.1839 37.776 11.5999C38.5013 12.0159 39.3493 12.2239 40.32 12.2239C41.28 12.2239 42.1173 12.0159 42.832 11.5999C43.5573 11.1839 44.112 10.6026 44.496 9.85592C44.8907 9.10925 45.088 8.23992 45.088 7.24792C45.088 6.25592 44.8907 5.38658 44.496 4.63992C44.112 3.88258 43.5627 3.30125 42.848 2.89592C42.1333 2.49058 41.2907 2.28792 40.32 2.28792ZM40.272 3.56792C39.6213 3.56792 39.0293 3.72258 38.496 4.03192C37.9627 4.33058 37.5413 4.75725 37.232 5.31192C36.9333 5.86658 36.784 6.50658 36.784 7.23192C36.784 7.95725 36.9387 8.60258 37.248 9.16792C37.5573 9.72258 37.9733 10.1546 38.496 10.4639C39.0293 10.7626 39.6213 10.9119 40.272 10.9119C41.0827 10.9119 41.7813 10.6986 42.368 10.2719C42.9547 9.83458 43.3493 9.26392 43.552 8.55992H41.888C41.7493 8.90125 41.552 9.16258 41.296 9.34392C41.04 9.52525 40.6987 9.61592 40.272 9.61592C39.7067 9.61592 39.2533 9.41325 38.912 9.00792C38.5707 8.59192 38.4 7.99992 38.4 7.23192C38.4 6.46392 38.5707 5.87725 38.912 5.47192C39.2533 5.06658 39.7067 4.86392 40.272 4.86392C40.6773 4.86392 41.0187 4.95458 41.296 5.13592C41.584 5.31725 41.7813 5.57858 41.888 5.91992H43.552C43.3493 5.17325 42.96 4.59725 42.384 4.19192C41.808 3.77592 41.104 3.56792 40.272 3.56792ZM48.593 10.3359C49.617 9.45058 50.4223 8.72525 51.009 8.15992C51.6063 7.58392 52.1023 6.98658 52.497 6.36792C52.8917 5.74925 53.089 5.13058 53.089 4.51192C53.089 3.87192 52.9343 3.37058 52.625 3.00792C52.3263 2.64525 51.8517 2.46392 51.201 2.46392C50.5717 2.46392 50.081 2.66658 49.729 3.07192C49.3877 3.46658 49.2063 3.99992 49.185 4.67192H47.425C47.457 3.45592 47.8197 2.52792 48.513 1.88792C49.217 1.23725 50.1077 0.911918 51.185 0.911918C52.3477 0.911918 53.2543 1.23192 53.905 1.87192C54.5663 2.51192 54.897 3.36525 54.897 4.43192C54.897 5.19992 54.6997 5.94125 54.305 6.65592C53.921 7.35992 53.457 7.99458 52.913 8.55992C52.3797 9.11458 51.697 9.75992 50.865 10.4959L50.145 11.1359H55.217V12.6559H47.441V11.3279L48.593 10.3359ZM56.8194 6.83192C56.8194 4.98658 57.1287 3.54658 57.7474 2.51192C58.3767 1.46658 59.454 0.943917 60.9794 0.943917C62.5047 0.943917 63.5767 1.46658 64.1954 2.51192C64.8247 3.54658 65.1394 4.98658 65.1394 6.83192C65.1394 8.69858 64.8247 10.1599 64.1954 11.2159C63.5767 12.2613 62.5047 12.7839 60.9794 12.7839C59.454 12.7839 58.3767 12.2613 57.7474 11.2159C57.1287 10.1599 56.8194 8.69858 56.8194 6.83192ZM63.3474 6.83192C63.3474 5.96792 63.2887 5.23725 63.1714 4.63992C63.0647 4.04258 62.8407 3.55725 62.4994 3.18392C62.158 2.79992 61.6514 2.60792 60.9794 2.60792C60.3074 2.60792 59.8007 2.79992 59.4594 3.18392C59.118 3.55725 58.8887 4.04258 58.7714 4.63992C58.6647 5.23725 58.6114 5.96792 58.6114 6.83192C58.6114 7.72792 58.6647 8.47992 58.7714 9.08792C58.878 9.69592 59.102 10.1866 59.4434 10.5599C59.7954 10.9333 60.3074 11.1199 60.9794 11.1199C61.6514 11.1199 62.158 10.9333 62.4994 10.5599C62.8514 10.1866 63.0807 9.69592 63.1874 9.08792C63.294 8.47992 63.3474 7.72792 63.3474 6.83192ZM68.0774 10.3359C69.1014 9.45058 69.9067 8.72525 70.4934 8.15992C71.0907 7.58392 71.5867 6.98658 71.9814 6.36792C72.376 5.74925 72.5734 5.13058 72.5734 4.51192C72.5734 3.87192 72.4187 3.37058 72.1094 3.00792C71.8107 2.64525 71.336 2.46392 70.6854 2.46392C70.056 2.46392 69.5654 2.66658 69.2134 3.07192C68.872 3.46658 68.6907 3.99992 68.6694 4.67192H66.9094C66.9414 3.45592 67.304 2.52792 67.9974 1.88792C68.7014 1.23725 69.592 0.911918 70.6694 0.911918C71.832 0.911918 72.7387 1.23192 73.3894 1.87192C74.0507 2.51192 74.3814 3.36525 74.3814 4.43192C74.3814 5.19992 74.184 5.94125 73.7894 6.65592C73.4054 7.35992 72.9414 7.99458 72.3974 8.55992C71.864 9.11458 71.1814 9.75992 70.3494 10.4959L69.6294 11.1359H74.7014V12.6559H66.9254V11.3279L68.0774 10.3359ZM83.8238 2.71992H78.4638V5.90392C78.6878 5.60525 79.0184 5.35458 79.4557 5.15192C79.9038 4.94925 80.3784 4.84792 80.8798 4.84792C81.7758 4.84792 82.5011 5.03992 83.0558 5.42392C83.6211 5.80792 84.0211 6.29325 84.2558 6.87992C84.5011 7.46658 84.6238 8.08525 84.6238 8.73592C84.6238 9.52525 84.4691 10.2293 84.1597 10.8479C83.8611 11.4559 83.4078 11.9359 82.7998 12.2879C82.2024 12.6399 81.4664 12.8159 80.5918 12.8159C79.4291 12.8159 78.4958 12.5279 77.7918 11.9519C77.0878 11.3759 76.6664 10.6133 76.5278 9.66392H78.3038C78.4211 10.1653 78.6824 10.5653 79.0878 10.8639C79.4931 11.1519 79.9998 11.2959 80.6078 11.2959C81.3651 11.2959 81.9304 11.0666 82.3038 10.6079C82.6878 10.1493 82.8798 9.54125 82.8798 8.78392C82.8798 8.01592 82.6878 7.42925 82.3038 7.02392C81.9198 6.60792 81.3544 6.39992 80.6078 6.39992C80.0851 6.39992 79.6424 6.53325 79.2798 6.79992C78.9278 7.05592 78.6718 7.40792 78.5118 7.85592H76.7838V1.11992H83.8238V2.71992ZM102.631 1.69592V12.8159H100.807V5.19992L97.4148 12.8159H96.1508L92.7428 5.19992V12.8159H90.9188V1.69592H92.8868L96.7908 10.4159L100.679 1.69592H102.631ZM113.108 8.19192C113.108 8.52258 113.087 8.82125 113.044 9.08792H106.308C106.361 9.79192 106.623 10.3573 107.092 10.7839C107.561 11.2106 108.137 11.4239 108.82 11.4239C109.801 11.4239 110.495 11.0133 110.9 10.1919H112.868C112.601 11.0026 112.116 11.6693 111.412 12.1919C110.719 12.7039 109.855 12.9599 108.82 12.9599C107.977 12.9599 107.22 12.7733 106.548 12.3999C105.887 12.0159 105.364 11.4826 104.98 10.7999C104.607 10.1066 104.42 9.30658 104.42 8.39992C104.42 7.49325 104.601 6.69858 104.964 6.01592C105.337 5.32258 105.855 4.78925 106.516 4.41592C107.188 4.04258 107.956 3.85592 108.82 3.85592C109.652 3.85592 110.393 4.03725 111.044 4.39992C111.695 4.76258 112.201 5.27458 112.564 5.93592C112.927 6.58658 113.108 7.33858 113.108 8.19192ZM111.204 7.61592C111.193 6.94392 110.953 6.40525 110.484 5.99992C110.015 5.59458 109.433 5.39192 108.74 5.39192C108.111 5.39192 107.572 5.59458 107.124 5.99992C106.676 6.39458 106.409 6.93325 106.324 7.61592H111.204ZM125.575 3.85592C126.268 3.85592 126.887 3.99992 127.431 4.28792C127.986 4.57592 128.418 5.00258 128.727 5.56792C129.047 6.13325 129.207 6.81592 129.207 7.61592V12.8159H127.399V7.88792C127.399 7.09858 127.202 6.49592 126.807 6.07992C126.412 5.65325 125.874 5.43992 125.191 5.43992C124.508 5.43992 123.964 5.65325 123.559 6.07992C123.164 6.49592 122.967 7.09858 122.967 7.88792V12.8159H121.159V7.88792C121.159 7.09858 120.962 6.49592 120.567 6.07992C120.172 5.65325 119.634 5.43992 118.951 5.43992C118.268 5.43992 117.724 5.65325 117.319 6.07992C116.924 6.49592 116.727 7.09858 116.727 7.88792V12.8159H114.903V3.99992H116.727V5.00792C117.026 4.64525 117.404 4.36258 117.863 4.15992C118.322 3.95725 118.812 3.85592 119.335 3.85592C120.039 3.85592 120.668 4.00525 121.223 4.30392C121.778 4.60258 122.204 5.03458 122.503 5.59992C122.77 5.06658 123.186 4.64525 123.751 4.33592C124.316 4.01592 124.924 3.85592 125.575 3.85592ZM135.352 12.9599C134.52 12.9599 133.768 12.7733 133.096 12.3999C132.424 12.0159 131.896 11.4826 131.512 10.7999C131.128 10.1066 130.936 9.30658 130.936 8.39992C130.936 7.50392 131.133 6.70925 131.528 6.01592C131.923 5.32258 132.461 4.78925 133.144 4.41592C133.827 4.04258 134.589 3.85592 135.432 3.85592C136.275 3.85592 137.037 4.04258 137.72 4.41592C138.403 4.78925 138.941 5.32258 139.336 6.01592C139.731 6.70925 139.928 7.50392 139.928 8.39992C139.928 9.29592 139.725 10.0906 139.32 10.7839C138.915 11.4773 138.36 12.0159 137.656 12.3999C136.963 12.7733 136.195 12.9599 135.352 12.9599ZM135.352 11.3759C135.821 11.3759 136.259 11.2639 136.664 11.0399C137.08 10.8159 137.416 10.4799 137.672 10.0319C137.928 9.58392 138.056 9.03992 138.056 8.39992C138.056 7.75992 137.933 7.22125 137.688 6.78392C137.443 6.33592 137.117 5.99992 136.712 5.77592C136.307 5.55192 135.869 5.43992 135.4 5.43992C134.931 5.43992 134.493 5.55192 134.088 5.77592C133.693 5.99992 133.379 6.33592 133.144 6.78392C132.909 7.22125 132.792 7.75992 132.792 8.39992C132.792 9.34925 133.032 10.0853 133.512 10.6079C134.003 11.1199 134.616 11.3759 135.352 11.3759ZM143.555 5.27992C143.822 4.83192 144.174 4.48525 144.611 4.23992C145.059 3.98392 145.587 3.85592 146.195 3.85592V5.74392H145.731C145.017 5.74392 144.473 5.92525 144.099 6.28792C143.737 6.65058 143.555 7.27992 143.555 8.17592V12.8159H141.731V3.99992H143.555V5.27992ZM147.264 8.36792C147.264 7.48258 147.445 6.69858 147.808 6.01592C148.181 5.33325 148.683 4.80525 149.312 4.43192C149.952 4.04792 150.656 3.85592 151.424 3.85592C152.117 3.85592 152.72 3.99458 153.232 4.27192C153.755 4.53858 154.171 4.87458 154.48 5.27992V3.99992H156.32V12.8159H154.48V11.5039C154.171 11.9199 153.749 12.2666 153.216 12.5439C152.683 12.8213 152.075 12.9599 151.392 12.9599C150.635 12.9599 149.941 12.7679 149.312 12.3839C148.683 11.9893 148.181 11.4453 147.808 10.7519C147.445 10.0479 147.264 9.25325 147.264 8.36792ZM154.48 8.39992C154.48 7.79192 154.352 7.26392 154.096 6.81592C153.851 6.36792 153.525 6.02658 153.12 5.79192C152.715 5.55725 152.277 5.43992 151.808 5.43992C151.339 5.43992 150.901 5.55725 150.496 5.79192C150.091 6.01592 149.76 6.35192 149.504 6.79992C149.259 7.23725 149.136 7.75992 149.136 8.36792C149.136 8.97592 149.259 9.50925 149.504 9.96792C149.76 10.4266 150.091 10.7786 150.496 11.0239C150.912 11.2586 151.349 11.3759 151.808 11.3759C152.277 11.3759 152.715 11.2586 153.12 11.0239C153.525 10.7893 153.851 10.4479 154.096 9.99992C154.352 9.54125 154.48 9.00792 154.48 8.39992ZM158.108 7.23192C158.108 6.14392 158.358 5.16792 158.86 4.30392C159.372 3.43992 160.06 2.76792 160.924 2.28792C161.798 1.79725 162.753 1.55192 163.788 1.55192C164.972 1.55192 166.022 1.84525 166.94 2.43192C167.868 3.00792 168.54 3.82925 168.956 4.89592H166.764C166.476 4.30925 166.076 3.87192 165.564 3.58392C165.052 3.29592 164.46 3.15192 163.788 3.15192C163.052 3.15192 162.396 3.31725 161.82 3.64792C161.244 3.97858 160.79 4.45325 160.46 5.07192C160.14 5.69058 159.98 6.41058 159.98 7.23192C159.98 8.05325 160.14 8.77325 160.46 9.39192C160.79 10.0106 161.244 10.4906 161.82 10.8319C162.396 11.1626 163.052 11.3279 163.788 11.3279C164.46 11.3279 165.052 11.1839 165.564 10.8959C166.076 10.6079 166.476 10.1706 166.764 9.58392H168.956C168.54 10.6506 167.868 11.4719 166.94 12.0479C166.022 12.6239 164.972 12.9119 163.788 12.9119C162.742 12.9119 161.788 12.6719 160.924 12.1919C160.06 11.7013 159.372 11.0239 158.86 10.1599C158.358 9.29592 158.108 8.31992 158.108 7.23192ZM170.483 8.36792C170.483 7.48258 170.664 6.69858 171.027 6.01592C171.4 5.33325 171.901 4.80525 172.531 4.43192C173.171 4.04792 173.875 3.85592 174.643 3.85592C175.336 3.85592 175.939 3.99458 176.451 4.27192C176.973 4.53858 177.389 4.87458 177.699 5.27992V3.99992H179.539V12.8159H177.699V11.5039C177.389 11.9199 176.968 12.2666 176.435 12.5439C175.901 12.8213 175.293 12.9599 174.611 12.9599C173.853 12.9599 173.16 12.7679 172.531 12.3839C171.901 11.9893 171.4 11.4453 171.027 10.7519C170.664 10.0479 170.483 9.25325 170.483 8.36792ZM177.699 8.39992C177.699 7.79192 177.571 7.26392 177.315 6.81592C177.069 6.36792 176.744 6.02658 176.339 5.79192C175.933 5.55725 175.496 5.43992 175.027 5.43992C174.557 5.43992 174.12 5.55725 173.715 5.79192C173.309 6.01592 172.979 6.35192 172.723 6.79992C172.477 7.23725 172.355 7.75992 172.355 8.36792C172.355 8.97592 172.477 9.50925 172.723 9.96792C172.979 10.4266 173.309 10.7786 173.715 11.0239C174.131 11.2586 174.568 11.3759 175.027 11.3759C175.496 11.3759 175.933 11.2586 176.339 11.0239C176.744 10.7893 177.069 10.4479 177.315 9.99992C177.571 9.54125 177.699 9.00792 177.699 8.39992ZM183.758 5.27992C184.025 4.83192 184.377 4.48525 184.814 4.23992C185.262 3.98392 185.79 3.85592 186.398 3.85592V5.74392H185.934C185.22 5.74392 184.676 5.92525 184.302 6.28792C183.94 6.65058 183.758 7.27992 183.758 8.17592V12.8159H181.934V3.99992H183.758V5.27992ZM196.155 8.19192C196.155 8.52258 196.134 8.82125 196.091 9.08792H189.355C189.408 9.79192 189.67 10.3573 190.139 10.7839C190.608 11.2106 191.184 11.4239 191.867 11.4239C192.848 11.4239 193.542 11.0133 193.947 10.1919H195.915C195.648 11.0026 195.163 11.6693 194.459 12.1919C193.766 12.7039 192.902 12.9599 191.867 12.9599C191.024 12.9599 190.267 12.7733 189.595 12.3999C188.934 12.0159 188.411 11.4826 188.027 10.7999C187.654 10.1066 187.467 9.30658 187.467 8.39992C187.467 7.49325 187.648 6.69858 188.011 6.01592C188.384 5.32258 188.902 4.78925 189.563 4.41592C190.235 4.04258 191.003 3.85592 191.867 3.85592C192.699 3.85592 193.44 4.03725 194.091 4.39992C194.742 4.76258 195.248 5.27458 195.611 5.93592C195.974 6.58658 196.155 7.33858 196.155 8.19192ZM194.251 7.61592C194.24 6.94392 194 6.40525 193.531 5.99992C193.062 5.59458 192.48 5.39192 191.787 5.39192C191.158 5.39192 190.619 5.59458 190.171 5.99992C189.723 6.39458 189.456 6.93325 189.371 7.61592H194.251ZM204.41 14.6239H202.586V-8.29697e-05H204.41V14.6239ZM219.226 5.00792C219.226 5.57325 219.093 6.10658 218.826 6.60792C218.559 7.10925 218.133 7.51992 217.546 7.83992C216.959 8.14925 216.207 8.30392 215.29 8.30392H213.274V12.8159H211.45V1.69592H215.29C216.143 1.69592 216.863 1.84525 217.45 2.14392C218.047 2.43192 218.49 2.82658 218.778 3.32792C219.077 3.82925 219.226 4.38925 219.226 5.00792ZM215.29 6.81592C215.983 6.81592 216.501 6.66125 216.842 6.35192C217.183 6.03192 217.354 5.58392 217.354 5.00792C217.354 3.79192 216.666 3.18392 215.29 3.18392H213.274V6.81592H215.29ZM222.79 5.27992C223.056 4.83192 223.408 4.48525 223.846 4.23992C224.294 3.98392 224.822 3.85592 225.43 3.85592V5.74392H224.966C224.251 5.74392 223.707 5.92525 223.334 6.28792C222.971 6.65058 222.79 7.27992 222.79 8.17592V12.8159H220.966V3.99992H222.79V5.27992ZM228.034 2.83192C227.704 2.83192 227.426 2.71992 227.202 2.49592C226.978 2.27192 226.866 1.99458 226.866 1.66392C226.866 1.33325 226.978 1.05592 227.202 0.831918C227.426 0.607917 227.704 0.495917 228.034 0.495917C228.354 0.495917 228.626 0.607917 228.85 0.831918C229.074 1.05592 229.186 1.33325 229.186 1.66392C229.186 1.99458 229.074 2.27192 228.85 2.49592C228.626 2.71992 228.354 2.83192 228.034 2.83192ZM228.93 3.99992V12.8159H227.106V3.99992H228.93ZM234.733 11.1839L237.229 3.99992H239.165L235.805 12.8159H233.629L230.285 3.99992H232.237L234.733 11.1839ZM239.936 8.36792C239.936 7.48258 240.117 6.69858 240.48 6.01592C240.853 5.33325 241.354 4.80525 241.984 4.43192C242.624 4.04792 243.328 3.85592 244.096 3.85592C244.789 3.85592 245.392 3.99458 245.904 4.27192C246.426 4.53858 246.842 4.87458 247.152 5.27992V3.99992H248.992V12.8159H247.152V11.5039C246.842 11.9199 246.421 12.2666 245.888 12.5439C245.354 12.8213 244.746 12.9599 244.064 12.9599C243.306 12.9599 242.613 12.7679 241.984 12.3839C241.354 11.9893 240.853 11.4453 240.48 10.7519C240.117 10.0479 239.936 9.25325 239.936 8.36792ZM247.152 8.39992C247.152 7.79192 247.024 7.26392 246.768 6.81592C246.522 6.36792 246.197 6.02658 245.792 5.79192C245.386 5.55725 244.949 5.43992 244.48 5.43992C244.01 5.43992 243.573 5.55725 243.168 5.79192C242.762 6.01592 242.432 6.35192 242.176 6.79992C241.93 7.23725 241.808 7.75992 241.808 8.36792C241.808 8.97592 241.93 9.50925 242.176 9.96792C242.432 10.4266 242.762 10.7786 243.168 11.0239C243.584 11.2586 244.021 11.3759 244.48 11.3759C244.949 11.3759 245.386 11.2586 245.792 11.0239C246.197 10.7893 246.522 10.4479 246.768 9.99992C247.024 9.54125 247.152 9.00792 247.152 8.39992ZM250.78 8.39992C250.78 7.49325 250.961 6.69858 251.324 6.01592C251.697 5.32258 252.209 4.78925 252.86 4.41592C253.51 4.04258 254.257 3.85592 255.1 3.85592C256.166 3.85592 257.046 4.11192 257.74 4.62392C258.444 5.12525 258.918 5.84525 259.164 6.78392H257.196C257.036 6.34658 256.78 6.00525 256.428 5.75992C256.076 5.51458 255.633 5.39192 255.1 5.39192C254.353 5.39192 253.756 5.65858 253.308 6.19192C252.87 6.71458 252.652 7.45058 252.652 8.39992C252.652 9.34925 252.87 10.0906 253.308 10.6239C253.756 11.1573 254.353 11.4239 255.1 11.4239C256.156 11.4239 256.854 10.9599 257.196 10.0319H259.164C258.908 10.9279 258.428 11.6426 257.724 12.1759C257.02 12.6986 256.145 12.9599 255.1 12.9599C254.257 12.9599 253.51 12.7733 252.86 12.3999C252.209 12.0159 251.697 11.4826 251.324 10.7999C250.961 10.1066 250.78 9.30658 250.78 8.39992ZM268.917 3.99992L263.509 16.9599H261.621L263.413 12.6719L259.941 3.99992H261.973L264.453 10.7199L267.029 3.99992H268.917ZM282.226 5.00792C282.226 5.57325 282.093 6.10658 281.826 6.60792C281.559 7.10925 281.133 7.51992 280.546 7.83992C279.959 8.14925 279.207 8.30392 278.29 8.30392H276.274V12.8159H274.45V1.69592H278.29C279.143 1.69592 279.863 1.84525 280.45 2.14392C281.047 2.43192 281.49 2.82658 281.778 3.32792C282.077 3.82925 282.226 4.38925 282.226 5.00792ZM278.29 6.81592C278.983 6.81592 279.501 6.66125 279.842 6.35192C280.183 6.03192 280.354 5.58392 280.354 5.00792C280.354 3.79192 279.666 3.18392 278.29 3.18392H276.274V6.81592H278.29ZM287.79 12.9599C286.958 12.9599 286.206 12.7733 285.534 12.3999C284.862 12.0159 284.334 11.4826 283.95 10.7999C283.566 10.1066 283.374 9.30658 283.374 8.39992C283.374 7.50392 283.571 6.70925 283.966 6.01592C284.36 5.32258 284.899 4.78925 285.582 4.41592C286.264 4.04258 287.027 3.85592 287.87 3.85592C288.712 3.85592 289.475 4.04258 290.158 4.41592C290.84 4.78925 291.379 5.32258 291.774 6.01592C292.168 6.70925 292.366 7.50392 292.366 8.39992C292.366 9.29592 292.163 10.0906 291.758 10.7839C291.352 11.4773 290.798 12.0159 290.094 12.3999C289.4 12.7733 288.632 12.9599 287.79 12.9599ZM287.79 11.3759C288.259 11.3759 288.696 11.2639 289.102 11.0399C289.518 10.8159 289.854 10.4799 290.11 10.0319C290.366 9.58392 290.494 9.03992 290.494 8.39992C290.494 7.75992 290.371 7.22125 290.126 6.78392C289.88 6.33592 289.555 5.99992 289.15 5.77592C288.744 5.55192 288.307 5.43992 287.838 5.43992C287.368 5.43992 286.931 5.55192 286.526 5.77592C286.131 5.99992 285.816 6.33592 285.582 6.78392C285.347 7.22125 285.23 7.75992 285.23 8.39992C285.23 9.34925 285.47 10.0853 285.95 10.6079C286.44 11.1199 287.054 11.3759 287.79 11.3759ZM295.993 0.975918V12.8159H294.169V0.975918H295.993ZM299.316 2.83192C298.985 2.83192 298.708 2.71992 298.484 2.49592C298.26 2.27192 298.148 1.99458 298.148 1.66392C298.148 1.33325 298.26 1.05592 298.484 0.831918C298.708 0.607917 298.985 0.495917 299.316 0.495917C299.636 0.495917 299.908 0.607917 300.132 0.831918C300.356 1.05592 300.468 1.33325 300.468 1.66392C300.468 1.99458 300.356 2.27192 300.132 2.49592C299.908 2.71992 299.636 2.83192 299.316 2.83192ZM300.212 3.99992V12.8159H298.388V3.99992H300.212ZM301.998 8.39992C301.998 7.49325 302.18 6.69858 302.542 6.01592C302.916 5.32258 303.428 4.78925 304.078 4.41592C304.729 4.04258 305.476 3.85592 306.318 3.85592C307.385 3.85592 308.265 4.11192 308.958 4.62392C309.662 5.12525 310.137 5.84525 310.382 6.78392H308.414C308.254 6.34658 307.998 6.00525 307.646 5.75992C307.294 5.51458 306.852 5.39192 306.318 5.39192C305.572 5.39192 304.974 5.65858 304.526 6.19192C304.089 6.71458 303.87 7.45058 303.87 8.39992C303.87 9.34925 304.089 10.0906 304.526 10.6239C304.974 11.1573 305.572 11.4239 306.318 11.4239C307.374 11.4239 308.073 10.9599 308.414 10.0319H310.382C310.126 10.9279 309.646 11.6426 308.942 12.1759C308.238 12.6986 307.364 12.9599 306.318 12.9599C305.476 12.9599 304.729 12.7733 304.078 12.3999C303.428 12.0159 302.916 11.4826 302.542 10.7999C302.18 10.1066 301.998 9.30658 301.998 8.39992ZM320.136 3.99992L314.728 16.9599H312.84L314.632 12.6719L311.16 3.99992H313.192L315.672 10.7199L318.248 3.99992H320.136Z" fill="#4B4E4D" fill-opacity="0.5"/>
<path opacity="0.5" d="M337 7.31592H355" stroke="#4B4E4D"/>
</svg>
