<svg xmlns="http://www.w3.org/2000/svg" xmlns:xlink="http://www.w3.org/1999/xlink" width="1500" zoomAndPan="magnify" viewBox="0 0 375 374.999991" height="500" preserveAspectRatio="xMidYMid meet" version="1.2"><defs/><g id="26fe36490c"><g style="fill:#000000;fill-opacity:1;"><g transform="translate(81.74945, 238.298188)"><path style="stroke:none" d="M 98.097656 -9.15625 C 94.828125 -32.699219 92.320312 -55.480469 90.359375 -79.460938 L 90.140625 -79.460938 C 79.351562 -58.203125 68.234375 -37.820312 55.699219 -16.023438 C 41.964844 -38.804688 30.738281 -58.96875 19.835938 -79.460938 L 19.621094 -79.460938 C 17.765625 -56.351562 15.257812 -32.589844 11.878906 -9.589844 C 11.007812 -3.160156 8.609375 -1.417969 2.398438 -0.546875 L 2.398438 0.109375 C 7.628906 -0.328125 10.574219 -0.4375 14.496094 -0.4375 C 18.53125 -0.4375 20.820312 -0.328125 26.160156 0.109375 L 26.160156 -0.546875 C 19.835938 -1.636719 17.65625 -3.160156 18.203125 -9.589844 C 19.292969 -24.199219 20.710938 -38.039062 22.671875 -52.972656 C 33.246094 -34.988281 43.382812 -16.785156 52.644531 0.980469 L 52.863281 0.980469 C 62.128906 -17.113281 71.71875 -34.988281 81.964844 -53.300781 C 83.929688 -38.695312 85.453125 -24.199219 86.433594 -9.265625 C 86.871094 -3.050781 83.710938 -1.417969 78.152344 -0.546875 L 78.152344 0.109375 C 83.601562 -0.328125 88.507812 -0.4375 92.757812 -0.4375 C 97.769531 -0.4375 102.457031 -0.328125 107.90625 0.109375 L 107.90625 -0.546875 C 102.023438 -1.527344 98.859375 -3.160156 98.097656 -9.15625 Z M 98.097656 -9.15625 "/></g></g><g style="fill:#000000;fill-opacity:1;"><g transform="translate(192.053424, 238.298188)"><path style="stroke:none" d="M 55.808594 -16.132812 L 55.152344 -16.242188 C 52.863281 -6.539062 49.265625 -4.6875 40.328125 -4.6875 C 31.9375 -4.6875 26.488281 -5.339844 25.941406 -12.753906 C 25.613281 -18.636719 25.503906 -27.359375 25.503906 -39.238281 L 25.503906 -39.566406 C 29.429688 -39.566406 33.460938 -39.566406 37.929688 -39.457031 C 45.5625 -39.238281 46.652344 -37.167969 48.066406 -31.9375 L 48.722656 -32.046875 C 48.285156 -35.097656 48.066406 -38.367188 48.066406 -41.417969 C 48.066406 -44.472656 48.394531 -47.742188 48.722656 -50.902344 L 48.066406 -51.011719 C 46.867188 -46.214844 45.453125 -43.273438 37.929688 -43.164062 C 32.261719 -43.054688 28.773438 -43.054688 25.503906 -43.164062 C 25.503906 -52.101562 25.613281 -59.1875 26.160156 -73.683594 C 30.847656 -74.226562 34.988281 -74.335938 38.367188 -74.335938 C 48.832031 -74.335938 53.082031 -72.375 54.714844 -63.65625 L 55.371094 -63.65625 C 54.933594 -68.777344 55.042969 -74.335938 55.371094 -78.585938 C 49.050781 -78.152344 40.003906 -77.933594 32.152344 -77.933594 C 21.800781 -77.933594 12.535156 -78.042969 5.886719 -78.585938 L 5.886719 -77.933594 C 11.664062 -76.953125 14.605469 -74.554688 14.933594 -68.558594 C 15.476562 -58.75 15.476562 -49.921875 15.476562 -39.238281 C 15.476562 -27.25 15.476562 -19.835938 14.933594 -9.808594 C 14.605469 -3.488281 11.554688 -1.527344 5.777344 -0.546875 L 5.777344 0.109375 C 12.316406 -0.4375 25.289062 -0.546875 32.152344 -0.546875 C 39.457031 -0.546875 46.105469 -0.652344 55.808594 0 C 55.261719 -5.667969 55.261719 -10.789062 55.808594 -16.132812 Z M 55.808594 -16.132812 "/></g></g><g style="fill:#000000;fill-opacity:1;"><g transform="translate(255.707107, 238.298188)"><path style="stroke:none" d="M 98.097656 -9.15625 C 94.828125 -32.699219 92.320312 -55.480469 90.359375 -79.460938 L 90.140625 -79.460938 C 79.351562 -58.203125 68.234375 -37.820312 55.699219 -16.023438 C 41.964844 -38.804688 30.738281 -58.96875 19.835938 -79.460938 L 19.621094 -79.460938 C 17.765625 -56.351562 15.257812 -32.589844 11.878906 -9.589844 C 11.007812 -3.160156 8.609375 -1.417969 2.398438 -0.546875 L 2.398438 0.109375 C 7.628906 -0.328125 10.574219 -0.4375 14.496094 -0.4375 C 18.53125 -0.4375 20.820312 -0.328125 26.160156 0.109375 L 26.160156 -0.546875 C 19.835938 -1.636719 17.65625 -3.160156 18.203125 -9.589844 C 19.292969 -24.199219 20.710938 -38.039062 22.671875 -52.972656 C 33.246094 -34.988281 43.382812 -16.785156 52.644531 0.980469 L 52.863281 0.980469 C 62.128906 -17.113281 71.71875 -34.988281 81.964844 -53.300781 C 83.929688 -38.695312 85.453125 -24.199219 86.433594 -9.265625 C 86.871094 -3.050781 83.710938 -1.417969 78.152344 -0.546875 L 78.152344 0.109375 C 83.601562 -0.328125 88.507812 -0.4375 92.757812 -0.4375 C 97.769531 -0.4375 102.457031 -0.328125 107.90625 0.109375 L 107.90625 -0.546875 C 102.023438 -1.527344 98.859375 -3.160156 98.097656 -9.15625 Z M 98.097656 -9.15625 "/></g></g><g style="fill:#000000;fill-opacity:1;"><g transform="translate(363.286128, 238.298188)"><path style="stroke:none" d="M 47.414062 0.871094 C 70.738281 0.871094 88.179688 -16.023438 88.179688 -39.238281 C 88.179688 -62.128906 70.304688 -79.351562 46.761719 -79.351562 C 23.542969 -79.351562 5.996094 -62.457031 5.996094 -39.238281 C 5.996094 -16.351562 23.761719 0.871094 47.414062 0.871094 Z M 48.285156 -3.160156 C 28.882812 -3.160156 16.894531 -21.910156 16.894531 -41.527344 C 16.894531 -60.710938 28.773438 -75.316406 45.886719 -75.316406 C 65.289062 -75.316406 77.171875 -56.570312 77.171875 -36.949219 C 77.171875 -17.765625 65.289062 -3.160156 48.285156 -3.160156 Z M 48.285156 -3.160156 "/></g></g></g></svg>